<?xml version="1.0" encoding="UTF-8" standalone="no"?>
<svg
   xmlns:dc="http://purl.org/dc/elements/1.1/"
   xmlns:cc="http://creativecommons.org/ns#"
   xmlns:rdf="http://www.w3.org/1999/02/22-rdf-syntax-ns#"
   xmlns:svg="http://www.w3.org/2000/svg"
   xmlns="http://www.w3.org/2000/svg"
   id="svg3989"
   version="1.1"
   viewBox="0 0 210 297"
   height="297mm"
   width="210mm">
  <defs
     id="defs3983" />
  <metadata
     id="metadata3986">
    <rdf:RDF>
      <cc:Work
         rdf:about="">
        <dc:format>image/svg+xml</dc:format>
        <dc:type
           rdf:resource="http://purl.org/dc/dcmitype/StillImage" />
        <dc:title></dc:title>
      </cc:Work>
    </rdf:RDF>
  </metadata>
  <g
     id="layer2">
    <g
       style="fill:#008080;stroke:#000000;stroke-width:50;stroke-miterlimit:4;stroke-dasharray:none;stroke-opacity:1"
       id="g4004">
      <path
         points="36.963243,88.792836 48.04057,92.615121 48.04057,97.962041 36.963243,94.505463 "
         d="m 36.963243,94.505463 v -5.712627 l 11.077327,3.822285 v 5.34692 z"
         style="fill:#008080;fill-rule:evenodd;stroke:none;stroke-linejoin:round"
         id="path4006" />
      <path
         points="58.435812,68.231406 58.435812,61.370028 48.04057,92.615121 48.04057,97.962041 "
         d="M 48.04057,97.962041 58.435812,68.231406 V 61.370028 L 48.04057,92.615121 Z"
         style="fill:#008080;fill-rule:evenodd;stroke:none;stroke-linejoin:round"
         id="path4016" />
      <path
         points="44.87053,53.57173 58.435812,61.370028 48.04057,92.615121 36.963243,88.792836 "
         d="M 36.963243,88.792836 44.87053,53.57173 58.435812,61.370028 48.04057,92.615121 Z"
         style="fill:#008080;fill-rule:evenodd;stroke:none;stroke-linejoin:round"
         id="path4014" />
      <path
         points="44.87053,61.047214 58.435812,68.231406 48.04057,97.962041 36.963243,94.505463 "
         d="M 36.963243,94.505463 44.87053,61.047214 58.435812,68.231406 48.04057,97.962041 Z"
         style="fill:#008080;fill-rule:evenodd;stroke:none;stroke-linejoin:round"
         id="path4008" />
      <path
         points="44.87053,53.57173 58.435812,61.370028 58.435812,68.231406 44.87053,61.047214 "
         d="M 44.87053,61.047214 V 53.57173 l 13.565282,7.798298 v 6.861378 z"
         style="fill:#008080;fill-rule:evenodd;stroke:none;stroke-linejoin:round"
         id="path4012" />
      <path
         points="44.87053,61.047214 44.87053,53.57173 36.963243,88.792836 36.963243,94.505463 "
         d="M 36.963243,94.505463 44.87053,61.047214 V 53.57173 l -7.907287,35.221106 z"
         style="fill:#008080;fill-rule:evenodd;stroke:none;stroke-linejoin:round"
         id="path4010" />
    </g>
    <g
       style="fill:#008080;stroke:#000000;stroke-width:50;stroke-miterlimit:4;stroke-dasharray:none;stroke-opacity:1"
       id="g4018">
      <path
         points="57.221185,113.45021 62.753943,114.71951 62.753943,90.583637 57.221185,88.407435 "
         d="m 57.221185,88.407435 v 25.042775 l 5.532758,1.2693 V 90.583637 Z"
         style="fill:#008080;fill-rule:evenodd;stroke:none;stroke-linejoin:round"
         id="path4020" />
      <path
         points="72.480283,69.330844 72.480283,98.032602 62.753943,114.71951 62.753943,90.583637 "
         d="m 62.753943,90.583637 9.72634,-21.252793 v 28.701758 l -9.72634,16.686908 z"
         style="fill:#008080;fill-rule:evenodd;stroke:none;stroke-linejoin:round"
         id="path4030" />
      <path
         points="66.29148,65.767992 72.480283,69.330844 62.753943,90.583637 57.221185,88.407435 "
         d="m 57.221185,88.407435 9.070295,-22.639443 6.188803,3.562852 -9.72634,21.252793 z"
         style="fill:#008080;fill-rule:evenodd;stroke:none;stroke-linejoin:round"
         id="path4022" />
      <path
         points="66.29148,95.761416 72.480283,98.032602 62.753943,114.71951 57.221185,113.45021 "
         d="m 57.221185,113.45021 9.070295,-17.688794 6.188803,2.271186 -9.72634,16.686908 z"
         style="fill:#008080;fill-rule:evenodd;stroke:none;stroke-linejoin:round"
         id="path4028" />
      <path
         points="66.29148,95.761416 72.480283,98.032602 72.480283,69.330844 66.29148,65.767992 "
         d="m 66.29148,65.767992 v 29.993424 l 6.188803,2.271186 V 69.330844 Z"
         style="fill:#008080;fill-rule:evenodd;stroke:none;stroke-linejoin:round"
         id="path4026" />
      <path
         points="66.29148,65.767992 66.29148,95.761416 57.221185,113.45021 57.221185,88.407435 "
         d="M 57.221185,88.407435 66.29148,65.767992 v 29.993424 l -9.070295,17.688794 z"
         style="fill:#008080;fill-rule:evenodd;stroke:none;stroke-linejoin:round"
         id="path4024" />
    </g>
    <g
       style="fill:#008080;stroke:#000000;stroke-width:50;stroke-miterlimit:4;stroke-dasharray:none;stroke-opacity:1"
       id="g4032">
      <path
         points="94.494048,140.00907 172.31043,145.72941 172.31043,130.60207 94.494048,93.648811 "
         d="m 94.494048,93.648811 v 46.360259 l 77.816382,5.72034 v -15.12734 z"
         style="fill:#353564;fill-rule:evenodd;stroke:none;stroke-linejoin:round"
         id="path4034" />
      <path
         points="157.5441,137.23678 157.5441,150.97645 172.31043,145.72941 172.31043,130.60207 "
         d="m 172.31043,130.60207 -14.76633,6.63471 v 13.73967 l 14.76633,-5.24704 z"
         style="fill:#e9e9ff;fill-rule:evenodd;stroke:none;stroke-linejoin:round"
         id="path4044" />
      <path
         points="74.839285,154.88096 157.5441,150.97645 157.5441,137.23678 74.839285,119.47857 "
         d="m 74.839285,119.47857 v 35.40239 l 82.704815,-3.90451 v -13.73967 z"
         style="fill:#d7d7ff;fill-rule:evenodd;stroke:none;stroke-linejoin:round"
         id="path4040" />
      <path
         points="74.839285,119.47857 157.5441,137.23678 172.31043,130.60207 94.494048,93.648811 "
         d="m 94.494048,93.648811 -19.654763,25.829759 82.704815,17.75821 14.76633,-6.63471 z"
         style="fill:#4d4d9f;fill-rule:evenodd;stroke:none;stroke-linejoin:round"
         id="path4036" />
      <path
         points="74.839285,154.88096 157.5441,150.97645 172.31043,145.72941 94.494048,140.00907 "
         d="m 94.494048,140.00907 -19.654763,14.87189 82.704815,-3.90451 14.76633,-5.24704 z"
         style="fill:#afafde;fill-rule:evenodd;stroke:none;stroke-linejoin:round"
         id="path4042" />
      <path
         points="74.839285,119.47857 74.839285,154.88096 94.494048,140.00907 94.494048,93.648811 "
         d="M 94.494048,93.648811 74.839285,119.47857 v 35.40239 l 19.654763,-14.87189 z"
         style="fill:#8686bf;fill-rule:evenodd;stroke:none;stroke-linejoin:round"
         id="path4038" />
    </g>
    <g
       style="fill:#008080;stroke:#000000;stroke-width:50;stroke-miterlimit:4;stroke-dasharray:none;stroke-opacity:1"
       id="g4046">
      <path
         points="62.753943,139.59508 84.881066,140.93325 84.881066,119.79581 62.753943,114.71951 "
         d="m 62.753943,114.71951 v 24.87557 l 22.127123,1.33817 v -21.13744 z"
         style="fill:#353564;fill-rule:evenodd;stroke:none;stroke-linejoin:round"
         id="path4048" />
      <path
         points="96.375887,106.80188 96.375887,131.24318 84.881066,140.93325 84.881066,119.79581 "
         d="m 84.881066,119.79581 11.494821,-12.99393 v 24.4413 l -11.494821,9.69007 z"
         style="fill:#e9e9ff;fill-rule:evenodd;stroke:none;stroke-linejoin:round"
         id="path4058" />
      <path
         points="72.480283,98.032602 96.375887,106.80188 84.881066,119.79581 62.753943,114.71951 "
         d="m 62.753943,114.71951 9.72634,-16.686908 23.895604,8.769278 -11.494821,12.99393 z"
         style="fill:#4d4d9f;fill-rule:evenodd;stroke:none;stroke-linejoin:round"
         id="path4050" />
      <path
         points="72.480283,127.61401 96.375887,131.24318 84.881066,140.93325 62.753943,139.59508 "
         d="m 62.753943,139.59508 9.72634,-11.98107 23.895604,3.62917 -11.494821,9.69007 z"
         style="fill:#afafde;fill-rule:evenodd;stroke:none;stroke-linejoin:round"
         id="path4056" />
      <path
         points="72.480283,127.61401 96.375887,131.24318 96.375887,106.80188 72.480283,98.032602 "
         d="m 72.480283,98.032602 v 29.581408 l 23.895604,3.62917 v -24.4413 z"
         style="fill:#d7d7ff;fill-rule:evenodd;stroke:none;stroke-linejoin:round"
         id="path4054" />
      <path
         points="72.480283,98.032602 72.480283,127.61401 62.753943,139.59508 62.753943,114.71951 "
         d="m 62.753943,114.71951 9.72634,-16.686908 v 29.581408 l -9.72634,11.98107 z"
         style="fill:#8686bf;fill-rule:evenodd;stroke:none;stroke-linejoin:round"
         id="path4052" />
    </g>
    <g
       style="fill:#008080;stroke:#000000;stroke-width:50;stroke-miterlimit:4;stroke-dasharray:none;stroke-opacity:1"
       id="g4060">
      <path
         points="116.41667,132.95833 170.48549,141.93771 170.48549,126.67632 116.41667,96.814346 "
         d="m 116.41667,96.814346 v 36.143984 l 54.06882,8.97938 v -15.26139 z"
         style="fill:#353564;fill-rule:evenodd;stroke:none;stroke-linejoin:round"
         id="path4062" />
      <path
         points="178.99848,122.59746 178.99848,138.67521 170.48549,141.93771 170.48549,126.67632 "
         d="m 170.48549,126.67632 8.51299,-4.07886 v 16.07775 l -8.51299,3.2625 z"
         style="fill:#e9e9ff;fill-rule:evenodd;stroke:none;stroke-linejoin:round"
         id="path4072" />
      <path
         points="130.77976,82.309525 178.99848,122.59746 170.48549,126.67632 116.41667,96.814346 "
         d="m 116.41667,96.814346 14.36309,-14.504821 48.21872,40.287935 -8.51299,4.07886 z"
         style="fill:#4d4d9f;fill-rule:evenodd;stroke:none;stroke-linejoin:round"
         id="path4064" />
      <path
         points="130.77976,123.39405 178.99848,138.67521 170.48549,141.93771 116.41667,132.95833 "
         d="m 116.41667,132.95833 14.36309,-9.56428 48.21872,15.28116 -8.51299,3.2625 z"
         style="fill:#afafde;fill-rule:evenodd;stroke:none;stroke-linejoin:round"
         id="path4070" />
      <path
         points="130.77976,123.39405 178.99848,138.67521 178.99848,122.59746 130.77976,82.309525 "
         d="m 130.77976,82.309525 v 41.084525 l 48.21872,15.28116 v -16.07775 z"
         style="fill:#d7d7ff;fill-rule:evenodd;stroke:none;stroke-linejoin:round"
         id="path4068" />
      <path
         points="130.77976,82.309525 130.77976,123.39405 116.41667,132.95833 116.41667,96.814346 "
         d="m 116.41667,96.814346 14.36309,-14.504821 v 41.084525 l -14.36309,9.56428 z"
         style="fill:#8686bf;fill-rule:evenodd;stroke:none;stroke-linejoin:round"
         id="path4066" />
    </g>
    <g
       style="fill:#008080;stroke:#000000;stroke-width:50;stroke-miterlimit:4;stroke-dasharray:none;stroke-opacity:1"
       id="g4074">
      <path
         points="148.16667,89.869047 164.70818,105.55387 164.70818,87.366953 148.16667,65.039889 "
         d="m 148.16667,65.039889 v 24.829158 l 16.54151,15.684823 V 87.366953 Z"
         style="fill:#353564;fill-rule:evenodd;stroke:none;stroke-linejoin:round"
         id="path4076" />
      <path
         points="176.76504,78.282255 176.76504,97.898908 164.70818,105.55387 164.70818,87.366953 "
         d="m 164.70818,87.366953 12.05686,-9.084698 v 19.616653 l -12.05686,7.654962 z"
         style="fill:#e9e9ff;fill-rule:evenodd;stroke:none;stroke-linejoin:round"
         id="path4086" />
      <path
         points="163.28572,49.80357 176.76504,78.282255 164.70818,87.366953 148.16667,65.039889 "
         d="m 148.16667,65.039889 15.11905,-15.236319 13.47932,28.478685 -12.05686,9.084698 z"
         style="fill:#4d4d9f;fill-rule:evenodd;stroke:none;stroke-linejoin:round"
         id="path4078" />
      <path
         points="163.28572,77.376281 176.76504,97.898908 164.70818,105.55387 148.16667,89.869047 "
         d="m 148.16667,89.869047 15.11905,-12.492766 13.47932,20.522627 -12.05686,7.654962 z"
         style="fill:#afafde;fill-rule:evenodd;stroke:none;stroke-linejoin:round"
         id="path4084" />
      <path
         points="163.28572,77.376281 176.76504,97.898908 176.76504,78.282255 163.28572,49.80357 "
         d="m 163.28572,49.80357 v 27.572711 l 13.47932,20.522627 V 78.282255 Z"
         style="fill:#d7d7ff;fill-rule:evenodd;stroke:none;stroke-linejoin:round"
         id="path4082" />
      <path
         points="163.28572,49.80357 163.28572,77.376281 148.16667,89.869047 148.16667,65.039889 "
         d="M 148.16667,65.039889 163.28572,49.80357 v 27.572711 l -15.11905,12.492766 z"
         style="fill:#8686bf;fill-rule:evenodd;stroke:none;stroke-linejoin:round"
         id="path4080" />
    </g>
    <path
       d="m 149.65935,130.78805 a 18.520834,47.188389 0 0 1 0.11802,-37.807272 18.520834,47.188389 0 0 1 10.97364,-25.451154 l 5.93649,44.698646 z"
       id="path4090"
       style="fill:#00ffff;stroke:#000000;stroke-width:13.22916603;stroke-miterlimit:4;stroke-dasharray:none;stroke-opacity:1" />
    <path
       d="m 51.822381,114.01315 a 64.326836,11.469436 0 0 1 0.409739,-9.18932 64.326836,11.469436 0 0 1 38.113863,-6.186081"
       id="path4092"
       style="fill:#00ffff;stroke:#000000;stroke-width:13.22916603;stroke-miterlimit:4;stroke-dasharray:none;stroke-opacity:1" />
    <path
       d="m 132.2268,120.007 a 17.953871,5.582891 0 0 1 5.40475,-6.58338 l 11.10209,4.38754 z"
       id="path4094"
       style="fill:#00ffff;stroke:#000000;stroke-width:13.22916603;stroke-miterlimit:4;stroke-dasharray:none;stroke-opacity:1" />
    <path
       d="m 97.820618,116.00132 a 17.925453,6.6025577 0 0 1 5.396212,-7.78577 l 11.08451,5.18888 z"
       id="path4096"
       style="fill:#00ffff;stroke:#000000;stroke-width:13.22916603;stroke-miterlimit:4;stroke-dasharray:none;stroke-opacity:1" />
    <path
       d="m 29.186518,78.403446 a 61.988094,18.898809 0 0 1 18.66065,-22.28558 l 38.331406,14.852372 z"
       id="path4098"
       style="fill:#00ffff;stroke:#000000;stroke-width:13.22916603;stroke-miterlimit:4;stroke-dasharray:none;stroke-opacity:1" />
  </g>
  <g
     id="layer1">
    <flowRoot
       transform="scale(0.26458333)"
       style="font-style:normal;font-weight:normal;font-size:40px;line-height:25px;font-family:sans-serif;letter-spacing:0px;word-spacing:0px;fill:#000000;fill-opacity:1;stroke:none"
       id="flowRoot3991"
       xml:space="preserve"><flowRegion
         id="flowRegion3993"><rect
           y="105.37683"
           x="148.57143"
           height="394.28571"
           width="520"
           id="rect3995" /></flowRegion><flowPara
         style="text-anchor:middle;text-align:center;line-height:114.17953173px;-inkscape-font-specification:'Segoe Script';font-family:'Segoe Script';font-weight:normal;font-style:normal;font-stretch:normal;font-variant:normal;fill:#000080;"
         id="flowPara3997">TJG Web Services</flowPara><flowPara
         style="text-anchor:middle;text-align:center;line-height:114.17953173px;-inkscape-font-specification:'Segoe Script';font-family:'Segoe Script';font-weight:normal;font-style:normal;font-stretch:normal;font-variant:normal;fill:#000080;"
         id="flowPara3999">NEWS</flowPara></flowRoot>  </g>
</svg>
